<svg width="40" height="40" viewBox="0 0 40 40" fill="none" xmlns="http://www.w3.org/2000/svg">
<g id="Frame" clip-path="url(#clip0_1_83)">
<path id="Vector" d="M20 40C31.0457 40 40 31.0457 40 20C40 8.95431 31.0457 0 20 0C8.95431 0 0 8.95431 0 20C0 31.0457 8.95431 40 20 40Z" fill="#1E1928"/>
<path id="Vector_2" d="M18.9659 17.5686V18.6614H18.1659V19.9972H18.9659V23.9677H20.6104V19.9972H21.7135C21.7135 19.9972 21.8175 19.3567 21.8675 18.6558H20.6167V17.7432C20.6167 17.6058 20.7961 17.4225 20.9738 17.4225H21.869V16.0312H20.6508C18.9254 16.0312 18.9659 17.3686 18.9659 17.5686Z" fill="white"/>
<path id="Vector_3" d="M15.2394 13.6508C14.8184 13.6508 14.4146 13.818 14.117 14.1157C13.8193 14.4134 13.6521 14.8171 13.6521 15.238V24.7619C13.6521 25.1829 13.8193 25.5866 14.117 25.8843C14.4146 26.182 14.8184 26.3492 15.2394 26.3492H24.7632C25.1842 26.3492 25.5879 26.182 25.8856 25.8843C26.1832 25.5866 26.3504 25.1829 26.3504 24.7619V15.238C26.3504 14.8171 26.1832 14.4134 25.8856 14.1157C25.5879 13.818 25.1842 13.6508 24.7632 13.6508H15.2394ZM15.2394 12.0635H24.7632C25.6051 12.0635 26.4126 12.398 27.008 12.9933C27.6033 13.5886 27.9378 14.3961 27.9378 15.238V24.7619C27.9378 25.6039 27.6033 26.4113 27.008 27.0067C26.4126 27.602 25.6051 27.9365 24.7632 27.9365H15.2394C14.3974 27.9365 13.59 27.602 12.9946 27.0067C12.3993 26.4113 12.0648 25.6039 12.0648 24.7619V15.238C12.0648 14.3961 12.3993 13.5886 12.9946 12.9933C13.59 12.398 14.3974 12.0635 15.2394 12.0635Z" fill="white"/>
</g>
<defs>
<clipPath id="clip0_1_83">
<rect width="40" height="40" fill="white"/>
</clipPath>
</defs>
</svg>
