<svg width="40" height="40" viewBox="0 0 40 40" fill="none" xmlns="http://www.w3.org/2000/svg">
<g id="Frame" clip-path="url(#clip0_1_66)">
<path id="Vector" d="M20 40C31.0457 40 40 31.0457 40 20C40 8.95431 31.0457 0 20 0C8.95431 0 0 8.95431 0 20C0 31.0457 8.95431 40 20 40Z" fill="#1E1928"/>
<path id="Vector_2" d="M20.0006 16.1847C17.8894 16.1847 16.1855 17.8886 16.1855 19.9999C16.1855 22.1111 17.8894 23.815 20.0006 23.815C22.1119 23.815 23.8157 22.1111 23.8157 19.9999C23.8157 17.8886 22.1119 16.1847 20.0006 16.1847ZM20.0006 22.4794C18.6353 22.4794 17.5211 21.3652 17.5211 19.9999C17.5211 18.6345 18.6353 17.5203 20.0006 17.5203C21.366 17.5203 22.4801 18.6345 22.4801 19.9999C22.4801 21.3652 21.366 22.4794 20.0006 22.4794ZM23.972 15.1394C23.479 15.1394 23.081 15.5374 23.081 16.0303C23.081 16.5233 23.479 16.9214 23.972 16.9214C24.4649 16.9214 24.863 16.5252 24.863 16.0303C24.8631 15.9133 24.8401 15.7974 24.7955 15.6892C24.7507 15.5811 24.6851 15.4828 24.6023 15.4001C24.5196 15.3172 24.4213 15.2516 24.3131 15.2069C24.2049 15.1622 24.089 15.1392 23.972 15.1394ZM27.4374 19.9999C27.4374 18.9731 27.4467 17.9556 27.389 16.9306C27.3314 15.7402 27.0598 14.6837 26.1892 13.8131C25.3168 12.9407 24.2621 12.671 23.0717 12.6133C22.0449 12.5557 21.0274 12.565 20.0024 12.565C18.9757 12.565 17.9582 12.5557 16.9333 12.6133C15.7428 12.671 14.6862 12.9425 13.8157 13.8131C12.9433 14.6855 12.6736 15.7402 12.616 16.9306C12.5582 17.9575 12.5676 18.9749 12.5676 19.9999C12.5676 21.0248 12.5582 22.0442 12.616 23.0691C12.6736 24.2596 12.9452 25.3161 13.8157 26.1866C14.6881 27.059 15.7428 27.3287 16.9333 27.3864C17.96 27.4441 18.9776 27.4347 20.0024 27.4347C21.0293 27.4347 22.0467 27.4441 23.0717 27.3864C24.2621 27.3287 25.3187 27.0572 26.1892 26.1866C27.0617 25.3143 27.3314 24.2596 27.389 23.0691C27.4485 22.0442 27.4374 21.0266 27.4374 19.9999ZM25.8004 24.3861C25.6647 24.7245 25.501 24.9776 25.2387 25.238C24.9764 25.5002 24.7253 25.664 24.3868 25.7997C23.4083 26.1885 21.0851 26.1011 20.0006 26.1011C18.9161 26.1011 16.591 26.1885 15.6126 25.8016C15.2741 25.6658 15.0211 25.5021 14.7606 25.2399C14.4983 24.9776 14.3347 24.7264 14.1989 24.3879C13.812 23.4076 13.8994 21.0843 13.8994 19.9999C13.8994 18.9154 13.812 16.5903 14.1989 15.6119C14.3347 15.2733 14.4983 15.0203 14.7606 14.7599C15.0229 14.4995 15.2741 14.334 15.6126 14.1982C16.591 13.8112 18.9161 13.8986 20.0006 13.8986C21.0851 13.8986 23.4102 13.8112 24.3886 14.1982C24.7272 14.334 24.9801 14.4977 25.2405 14.7599C25.5028 15.0222 25.6665 15.2733 25.8023 15.6119C26.1892 16.5903 26.1018 18.9154 26.1018 19.9999C26.1018 21.0843 26.1892 23.4076 25.8004 24.3861Z" fill="white"/>
</g>
<defs>
<clipPath id="clip0_1_66">
<rect width="40" height="40" fill="white"/>
</clipPath>
</defs>
</svg>
