<svg width="40" height="40" viewBox="0 0 40 40" fill="none" xmlns="http://www.w3.org/2000/svg">
<g id="Frame" clip-path="url(#clip0_1_71)">
<path id="Vector" d="M20 40C31.0457 40 40 31.0457 40 20C40 8.95431 31.0457 0 20 0C8.95431 0 0 8.95431 0 20C0 31.0457 8.95431 40 20 40Z" fill="#1E1928"/>
<path id="Vector_2" d="M24.5238 20.4384V23.4312H22.7891V20.6384C22.7891 19.9373 22.538 19.4588 21.9099 19.4588C21.4307 19.4588 21.1449 19.781 21.0193 20.0935C20.974 20.2052 20.9619 20.3606 20.9619 20.5161V23.4312H19.2263C19.2263 23.4312 19.2498 18.702 19.2263 18.2122H20.9619V18.9513L20.9506 18.9683H20.9619V18.9521C21.1927 18.5959 21.6038 18.0891 22.5259 18.0891C23.6674 18.0891 24.5238 18.8355 24.5238 20.4384ZM17.4106 15.6953C16.8172 15.6953 16.4286 16.0855 16.4286 16.5971C16.4286 17.099 16.8058 17.4998 17.3879 17.4998H17.3993C18.0048 17.4998 18.3812 17.0983 18.3812 16.5971C18.3698 16.0855 18.0048 15.6953 17.4106 15.6953ZM16.5314 23.4312H18.267V18.2122H16.5314V23.4312Z" fill="white"/>
<path id="Vector_3" d="M15.6191 13.0478C15.1896 13.0478 14.7778 13.2183 14.4742 13.5219C14.1706 13.8256 14 14.2374 14 14.6668V24.3811C14 24.8104 14.1706 25.2222 14.4742 25.5259C14.7778 25.8296 15.1896 26.0001 15.6191 26.0001H25.3334C25.7628 26.0001 26.1746 25.8296 26.4782 25.5259C26.7818 25.2222 26.9524 24.8104 26.9524 24.3811V14.6668C26.9524 14.2374 26.7818 13.8256 26.4782 13.5219C26.1746 13.2183 25.7628 13.0478 25.3334 13.0478H15.6191ZM15.6191 11.4287H25.3334C26.1921 11.4287 27.0157 11.7699 27.6231 12.3771C28.2303 12.9844 28.5715 13.808 28.5715 14.6668V24.3811C28.5715 25.2399 28.2303 26.0635 27.6231 26.6707C27.0157 27.278 26.1921 27.6192 25.3334 27.6192H15.6191C14.7603 27.6192 13.9367 27.278 13.3294 26.6707C12.7221 26.0635 12.381 25.2399 12.381 24.3811V14.6668C12.381 13.808 12.7221 12.9844 13.3294 12.3771C13.9367 11.7699 14.7603 11.4287 15.6191 11.4287Z" fill="white"/>
</g>
<defs>
<clipPath id="clip0_1_71">
<rect width="40" height="40" fill="white"/>
</clipPath>
</defs>
</svg>
