<svg width="40" height="40" viewBox="0 0 40 40" fill="none" xmlns="http://www.w3.org/2000/svg">
<g id="Frame" clip-path="url(#clip0_1_77)">
<path id="Vector" d="M20 40C31.0457 40 40 31.0457 40 20C40 8.95431 31.0457 0 20 0C8.95431 0 0 8.95431 0 20C0 31.0457 8.95431 40 20 40Z" fill="#1E1928"/>
<path id="Vector_2" d="M23.9708 17.5773C23.6787 17.7043 23.3652 17.7916 23.0358 17.8297C23.3724 17.6312 23.6295 17.3169 23.7517 16.9431C23.431 17.1301 23.0811 17.2615 22.7168 17.3321C22.5635 17.1714 22.3791 17.0436 22.1748 16.9565C21.9706 16.8695 21.7508 16.825 21.5287 16.8257C20.6295 16.8257 19.9009 17.544 19.9009 18.4288C19.9009 18.5543 19.9152 18.6765 19.9429 18.794C19.298 18.7633 18.6665 18.5985 18.0888 18.3103C17.5109 18.0219 16.9996 17.6164 16.5874 17.1193C16.4426 17.3631 16.3664 17.6414 16.3668 17.9249C16.3668 18.4805 16.6548 18.9725 17.0913 19.259C16.8329 19.2509 16.5802 19.1822 16.3532 19.0583V19.0781C16.3557 19.4506 16.4872 19.8109 16.7254 20.0974C16.9636 20.384 17.2937 20.579 17.6596 20.6495C17.4194 20.713 17.1681 20.7223 16.9239 20.6765C17.0304 20.997 17.234 21.2765 17.5065 21.476C17.7789 21.6755 18.1068 21.7853 18.4446 21.79C17.8651 22.2365 17.1538 22.4777 16.4223 22.4757C16.2913 22.4757 16.162 22.4678 16.0342 22.4535C16.7807 22.926 17.6461 23.1762 18.5295 23.1749C21.5248 23.1749 23.162 20.7321 23.162 18.613L23.1565 18.405C23.4758 18.1806 23.7517 17.9002 23.9708 17.5773Z" fill="white"/>
<path id="Vector_3" d="M15.2394 13.6508C14.8184 13.6508 14.4146 13.818 14.117 14.1157C13.8193 14.4134 13.6521 14.8171 13.6521 15.238V24.7619C13.6521 25.1829 13.8193 25.5866 14.117 25.8843C14.4146 26.182 14.8184 26.3492 15.2394 26.3492H24.7632C25.1842 26.3492 25.5879 26.182 25.8856 25.8843C26.1832 25.5866 26.3504 25.1829 26.3504 24.7619V15.238C26.3504 14.8171 26.1832 14.4134 25.8856 14.1157C25.5879 13.818 25.1842 13.6508 24.7632 13.6508H15.2394ZM15.2394 12.0635H24.7632C25.6051 12.0635 26.4126 12.398 27.008 12.9933C27.6033 13.5886 27.9378 14.3961 27.9378 15.238V24.7619C27.9378 25.6039 27.6033 26.4113 27.008 27.0067C26.4126 27.602 25.6051 27.9365 24.7632 27.9365H15.2394C14.3974 27.9365 13.59 27.602 12.9946 27.0067C12.3993 26.4113 12.0648 25.6039 12.0648 24.7619V15.238C12.0648 14.3961 12.3993 13.5886 12.9946 12.9933C13.59 12.398 14.3974 12.0635 15.2394 12.0635Z" fill="white"/>
</g>
<defs>
<clipPath id="clip0_1_77">
<rect width="40" height="40" fill="white"/>
</clipPath>
</defs>
</svg>
